<?xml version="1.0" encoding="UTF-8"?>
<!DOCTYPE svg PUBLIC "-//W3C//DTD SVG 1.1//EN" "http://www.w3.org/Graphics/SVG/1.1/DTD/svg11.dtd">
<svg xmlns="http://www.w3.org/2000/svg" version="1.1" width="512px" height="512px" style="shape-rendering:geometricPrecision; text-rendering:geometricPrecision; image-rendering:optimizeQuality; fill-rule:evenodd; clip-rule:evenodd" xmlns:xlink="http://www.w3.org/1999/xlink">
<g><path style="opacity:1" fill="#060201" d="M 314.5,-0.5 C 320.833,-0.5 327.167,-0.5 333.5,-0.5C 371.757,7.95986 404.424,26.2932 431.5,54.5C 432.911,56.914 434.911,58.5806 437.5,59.5C 441.833,63.1667 445.833,67.1667 449.5,71.5C 451.094,74.7642 453.427,77.4309 456.5,79.5C 476.19,99.1839 491.69,121.851 503,147.5C 505.557,153.998 507.39,160.665 508.5,167.5C 508.294,170.495 508.96,173.162 510.5,175.5C 510.5,176.167 510.833,176.5 511.5,176.5C 511.5,183.167 511.5,189.833 511.5,196.5C 480.685,228.272 443.352,240.772 399.5,234C 374.167,259.333 348.833,284.667 323.5,310C 332.598,326.983 336.932,345.15 336.5,364.5C 337.195,397.945 325.528,426.112 301.5,449C 291.18,456.024 279.846,458.357 267.5,456C 254.113,453.315 241.446,448.648 229.5,442C 208.254,429.091 188.42,414.258 170,397.5C 118.188,435.643 66.3546,473.643 14.5,511.5C 11.5,511.5 8.5,511.5 5.5,511.5C 3.16667,509.833 1.16667,507.833 -0.5,505.5C -0.5,502.5 -0.5,499.5 -0.5,496.5C 37.3567,444.645 75.3567,392.812 113.5,341C 92.4069,317.985 74.9069,292.485 61,264.5C 54.9687,250.987 53.302,236.987 56,222.5C 57.3333,219.167 58.6667,215.833 60,212.5C 76.4418,193.022 97.2751,180.855 122.5,176C 150.252,170.768 176.586,174.601 201.5,187.5C 227.783,162.884 253.45,137.551 278.5,111.5C 277.911,105.301 276.911,99.3014 275.5,93.5C 274.236,56.0529 287.236,24.7196 314.5,-0.5 Z"/></g>
<g><path style="opacity:1" fill="#f24235" d="M 332.5,22.5 C 345.57,24.3623 357.903,28.5289 369.5,35C 409.442,59.2729 442.608,90.7729 469,129.5C 479.136,144.412 485.636,160.745 488.5,178.5C 466.385,172.775 446.052,163.275 427.5,150C 387.983,122.786 358.483,87.286 339,43.5C 336.123,36.7048 333.957,29.7048 332.5,22.5 Z"/></g>
<g><path style="opacity:1" fill="#d12e2e" d="M 312.5,34.5 C 342.134,112.917 396.134,167.084 474.5,197C 475.833,197.667 475.833,198.333 474.5,199C 441.256,218.764 407.589,219.43 373.5,201C 350.178,187.014 330.678,168.847 315,146.5C 302.46,125.55 296.46,102.884 297,78.5C 299.078,62.6916 304.244,48.025 312.5,34.5 Z"/></g>
<g><path style="opacity:0.012" fill="#4f1512" d="M 431.5,54.5 C 434.089,55.4194 436.089,57.086 437.5,59.5C 434.911,58.5806 432.911,56.914 431.5,54.5 Z"/></g>
<g><path style="opacity:0.973" fill="#511713" d="M 449.5,71.5 C 452.573,73.5691 454.906,76.2358 456.5,79.5C 453.427,77.4309 451.094,74.7642 449.5,71.5 Z"/></g>
<g><path style="opacity:0.206" fill="#a22424" d="M 275.5,93.5 C 276.911,99.3014 277.911,105.301 278.5,111.5C 278.167,111.5 277.833,111.5 277.5,111.5C 276.181,105.581 275.514,99.5811 275.5,93.5 Z"/></g>
<g><path style="opacity:1" fill="#f34235" d="M 284.5,134.5 C 300.394,167.577 323.728,194.41 354.5,215C 361.628,219.14 368.961,222.807 376.5,226C 351.167,251.333 325.833,276.667 300.5,302C 294.307,302.984 288.307,302.318 282.5,300C 251.615,282.782 227.782,258.615 211,227.5C 208.629,222.061 207.963,216.394 209,210.5C 234.368,185.299 259.535,159.965 284.5,134.5 Z"/></g>
<g><path style="opacity:1" fill="#2b120c" d="M 277.5,111.5 C 277.833,111.5 278.167,111.5 278.5,111.5C 253.45,137.551 227.783,162.884 201.5,187.5C 226.5,161.833 251.833,136.5 277.5,111.5 Z"/></g>
<g><path style="opacity:0.827" fill="#4f1713" d="M 508.5,167.5 C 509.768,169.905 510.435,172.572 510.5,175.5C 508.96,173.162 508.294,170.495 508.5,167.5 Z"/></g>
<g><path style="opacity:1" fill="#d22e2e" d="M 128.5,196.5 C 139.838,196.333 151.172,196.5 162.5,197C 170.905,198.468 178.905,201.135 186.5,205C 185.987,223.469 191.154,240.303 202,255.5C 218.96,278.795 239.46,298.295 263.5,314C 276.613,321.781 290.613,325.281 305.5,324.5C 313.944,341.226 316.777,358.893 314,377.5C 311.457,398.833 302.624,417 287.5,432C 275.486,435.865 263.82,434.865 252.5,429C 234.308,419.744 217.308,408.744 201.5,396C 172.034,371.534 144.867,344.701 120,315.5C 106.1,298.258 93.7664,279.925 83,260.5C 77.2856,249.338 75.619,237.672 78,225.5C 86.8287,215.021 97.662,207.187 110.5,202C 116.531,199.832 122.531,197.999 128.5,196.5 Z"/></g>
<g><path style="opacity:1" fill="#cbd4d8" d="M 128.5,357.5 C 136.965,365.464 145.298,373.631 153.5,382C 123.678,404.411 93.678,426.577 63.5,448.5C 62.479,447.998 62.3123,447.332 63,446.5C 84.8425,416.804 106.676,387.137 128.5,357.5 Z"/></g>
</svg>
